<svg width="17" height="18" viewBox="0 0 17 18" fill="none" xmlns="http://www.w3.org/2000/svg">
<path d="M16 3.58333C16 10.717 10.217 16.5 3.08333 16.5C2.76148 16.5 2.44238 16.4882 2.12643 16.4651C1.76385 16.4385 1.58255 16.4253 1.41752 16.3303C1.28084 16.2516 1.15122 16.1121 1.08271 15.97C1 15.7985 1 15.5984 1 15.1983V12.8506C1 12.5141 1 12.3458 1.05538 12.2017C1.10429 12.0742 1.18374 11.9608 1.28675 11.8713C1.40336 11.77 1.56147 11.7125 1.87767 11.5975L4.55004 10.6257C4.91794 10.492 5.10189 10.4251 5.27642 10.4364C5.43031 10.4464 5.5784 10.499 5.70422 10.5882C5.8469 10.6892 5.94761 10.8571 6.14902 11.1928L6.83333 12.3333C9.04158 11.3332 10.8317 9.54075 11.8333 7.33333L10.6928 6.64902C10.3571 6.44761 10.1892 6.3469 10.0882 6.20422C9.999 6.0784 9.94642 5.93031 9.93642 5.77642C9.92508 5.60189 9.992 5.41794 10.1257 5.05004L11.0975 2.37767C11.2125 2.06147 11.27 1.90336 11.3713 1.78675C11.4608 1.68374 11.5742 1.60429 11.7017 1.55538C11.8458 1.5 12.0141 1.5 12.3506 1.5H14.6983C15.0984 1.5 15.2985 1.5 15.47 1.58271C15.6121 1.65122 15.7516 1.78084 15.8303 1.91752C15.9253 2.08256 15.9385 2.26385 15.9651 2.62644C15.9882 2.94238 16 3.26148 16 3.58333Z" stroke="black" stroke-width="2" stroke-linecap="round" stroke-linejoin="round"/>
</svg>
