<svg width="15" height="16" viewBox="0 0 15 16" fill="none" xmlns="http://www.w3.org/2000/svg">
<path d="M3.30317 5.11607C3.37846 4.52064 4.15229 3.71139 4.76642 3.80118L4.76544 3.8002C5.36311 3.91378 5.83623 4.94245 6.10301 5.405C6.29203 5.7406 6.16929 6.08063 5.99298 6.22411C5.75513 6.41581 5.38319 6.68033 5.46123 6.94591C5.59996 7.41805 7.24712 9.06521 8.05726 9.53346C8.36389 9.7107 8.58626 9.24323 8.77614 9.00374C8.91411 8.81952 9.25441 8.70942 9.58924 8.89127C10.0893 9.18249 10.5604 9.52094 10.996 9.90196C11.2136 10.0838 11.2647 10.3526 11.1139 10.6366C10.8484 11.1369 10.0804 11.7966 9.52296 11.6625C8.54929 11.4284 4.61167 9.90196 3.34687 5.47969C3.27574 5.27048 3.29365 5.19139 3.30317 5.11607Z" fill="#0F0F0F"/>
<path fill-rule="evenodd" clip-rule="evenodd" d="M7.24748 14.995C6.4413 14.995 5.99525 14.9085 5.2709 14.6655L3.88362 15.3592C3.00746 15.7973 1.97659 15.1601 1.97659 14.1805V12.6889C0.55776 11.366 0 9.84049 0 7.74748C0 3.74481 3.24481 0.5 7.24748 0.5C11.2501 0.5 14.495 3.74481 14.495 7.74748C14.495 11.7501 11.2501 14.995 7.24748 14.995ZM3.29431 12.1159L2.87524 11.7252C1.77291 10.6973 1.31772 9.54822 1.31772 7.74748C1.31772 4.47257 3.97257 1.81772 7.24748 1.81772C10.5224 1.81772 13.1772 4.47257 13.1772 7.74748C13.1772 11.0224 10.5224 13.6772 7.24748 13.6772C6.59804 13.6772 6.29345 13.6186 5.6899 13.4162L5.17106 13.2422L3.29431 14.1805V12.1159Z" fill="#0F0F0F"/>
</svg>
