<svg width="16" height="16" viewBox="0 0 16 16" fill="none" xmlns="http://www.w3.org/2000/svg">
<path d="M8.41239 2.70789C8.05788 2.70789 7.77051 2.99527 7.77051 3.34977C7.77051 3.70427 8.05788 3.99165 8.41239 3.99165C9.22938 3.99165 9.86029 4.26117 10.2853 4.68624C10.7104 5.11131 10.9799 5.74223 10.9799 6.55918C10.9799 6.9137 11.2673 7.20107 11.6218 7.20107C11.9763 7.20107 12.2637 6.9137 12.2637 6.55918C12.2637 5.45049 11.8913 4.4767 11.1931 3.77848C10.4949 3.08025 9.52105 2.70789 8.41239 2.70789Z" fill="#0F0F0F"/>
<path d="M3.28633 5.2794C3.35968 4.69931 4.11357 3.91091 4.71188 3.99839L4.71092 3.99744C5.21102 4.09247 5.62161 4.84518 5.8922 5.34123C5.93665 5.42273 5.97733 5.49729 6.01401 5.56088C6.19817 5.88783 6.07859 6.2191 5.90685 6.35888C5.88699 6.37488 5.86617 6.39141 5.84475 6.40841C5.61621 6.58985 5.31926 6.82555 5.38877 7.06208C5.52393 7.52206 7.12864 9.12676 7.9179 9.58295C8.15957 9.72262 8.34745 9.45136 8.50837 9.21907C8.54637 9.16418 8.58289 9.11149 8.61826 9.06688C8.75267 8.8874 9.0842 8.78015 9.41041 8.95731C9.8976 9.24102 10.3565 9.57075 10.781 9.94195C10.9929 10.1191 11.0427 10.3809 10.8958 10.6577C10.6371 11.145 9.88893 11.7878 9.34583 11.6571C8.39726 11.4291 4.56111 9.94195 3.32891 5.63364C3.26438 5.44387 3.27506 5.36399 3.28433 5.29466L3.28633 5.2794Z" fill="#0F0F0F"/>
<path d="M8.41239 4.63354C8.05788 4.63354 7.77051 4.92093 7.77051 5.27543C7.77051 5.62993 8.05788 5.91731 8.41239 5.91731C8.52459 5.91731 8.69045 5.97986 8.8411 6.13049C8.99169 6.2811 9.05427 6.44701 9.05427 6.55919C9.05427 6.91371 9.34164 7.20108 9.69616 7.20108C10.0507 7.20108 10.338 6.91371 10.338 6.55919C10.338 6.02949 10.0797 5.55352 9.74886 5.22272C9.41809 4.89193 8.94207 4.63354 8.41239 4.63354Z" fill="#0F0F0F"/>
<path fill-rule="evenodd" clip-rule="evenodd" d="M4.89315 15.4372C4.91141 15.4473 4.93016 15.4565 4.94932 15.4647C5.29767 15.6145 5.72768 15.28 6.58771 14.6111L7.4495 13.9408C9.17514 13.998 10.6679 13.7715 11.822 13.3677C13.1126 12.9161 14.1274 11.9013 14.579 10.6107C15.2014 8.83209 15.2014 5.56993 14.579 3.79134C14.1274 2.5007 13.1126 1.48593 11.822 1.03431C9.76689 0.315205 5.73567 0.32862 3.71892 1.03431C2.42826 1.48593 1.4135 2.5007 0.961882 3.79134C0.339529 5.56993 0.339529 8.83209 0.961882 10.6107C1.4135 11.9013 2.42826 12.9161 3.71892 13.3677C3.97211 13.4563 4.25531 13.5535 4.56103 13.6199C4.56103 14.7094 4.56103 15.2542 4.89315 15.4372ZM5.8448 13.5626V12.8438C5.8448 12.6928 5.73953 12.5623 5.59187 12.5307C5.10282 12.4262 4.61672 12.3217 4.14292 12.156C3.22102 11.8334 2.49619 11.1085 2.17361 10.1867C1.92848 9.4861 1.77888 8.38553 1.77888 7.201C1.77888 6.01649 1.92848 4.91588 2.17361 4.21535C2.49619 3.29345 3.22102 2.56862 4.14292 2.24604C4.95659 1.96132 6.30511 1.78538 7.75748 1.78378C9.20967 1.78217 10.5665 1.9551 11.398 2.24604C12.3199 2.56862 13.0447 3.29345 13.3673 4.21535C13.6124 4.91588 13.762 6.01649 13.762 7.201C13.762 8.38553 13.6124 9.4861 13.3673 10.1867C13.0447 11.1085 12.3199 11.8334 11.398 12.156C10.0297 12.6347 8.57858 12.6885 7.1439 12.646C7.06893 12.6438 6.99544 12.6677 6.93625 12.7137L5.8448 13.5626Z" fill="#0F0F0F"/>
</svg>
