<svg width="36" height="35" viewBox="0 0 36 35" fill="none" xmlns="http://www.w3.org/2000/svg">
<path d="M32.7609 8.99338C31.4233 7.61416 29.653 6.65551 27.6801 6.3091C27.0787 4.68001 26.0625 3.25648 24.7537 2.17881C23.1032 0.819332 20.9775 -0.00103102 18.679 9.72503e-07C16.3571 -0.00103102 14.2102 0.835362 12.5523 2.22043C11.3071 3.25861 10.3259 4.60797 9.72662 6.15272C7.16711 6.16442 4.83469 7.21698 3.1577 8.9069C1.46908 10.6043 0.417852 12.9694 0.418946 15.5624C0.417852 18.1549 1.46908 20.52 3.15763 22.2174C4.84419 23.9175 7.19363 24.9754 9.7701 24.9743C10.5789 24.9743 11.6873 24.9743 12.9554 24.9743V21.2635C11.6873 21.2635 10.5789 21.2635 9.7701 21.2635C8.20029 21.2625 6.79592 20.6284 5.76485 19.5934C4.737 18.5557 4.107 17.1435 4.10591 15.5624C4.107 13.9819 4.737 12.5685 5.76485 11.5309C6.79592 10.497 8.20023 9.86286 9.7701 9.86183C10.0862 9.86183 10.4097 9.89485 10.748 9.95361L12.5194 10.2653L12.8726 8.49114C13.1431 7.13057 13.8771 5.9349 14.9038 5.07822C15.9327 4.2216 17.2374 3.71179 18.6789 3.71076C20.1056 3.71179 21.3965 4.21141 22.42 5.05207C23.4425 5.89321 24.1786 7.06913 24.4661 8.40783L24.7716 9.833L26.2195 9.87139C27.7522 9.91254 29.1215 10.5584 30.1229 11.5869C31.121 12.6187 31.7309 14.0086 31.732 15.5624C31.7309 17.1434 31.1009 18.5557 30.073 19.5934C29.042 20.6284 27.6377 21.2625 26.0679 21.2635C25.2659 21.2635 24.1565 21.2635 22.8836 21.2635V24.9743C24.1565 24.9743 25.2659 24.9743 26.0679 24.9743C28.6443 24.9754 30.9938 23.9174 32.6803 22.2174C34.3689 20.52 35.42 18.156 35.4189 15.5624C35.42 13.0116 34.4028 10.6817 32.7609 8.99338Z" fill="#9A1A86"/>
<path d="M20.7113 15.2891H15.1277V27.3906H11.5383L17.9195 34.9999L24.3008 27.3906H20.7113V15.2891Z" fill="#9A1A86"/>
</svg>
