<svg width="62" height="62" viewBox="0 0 62 62" fill="none" xmlns="http://www.w3.org/2000/svg">
<path d="M14.9263 61C22.6176 61 28.8526 54.765 28.8526 47.0737C28.8526 39.3825 22.6176 33.1475 14.9263 33.1475C7.23501 33.1475 1 39.3825 1 47.0737C1 54.765 7.23501 61 14.9263 61Z" fill="#6AC4A2" stroke="#6AC4A2" stroke-miterlimit="10"/>
<path d="M46.6558 28.8526C54.3471 28.8526 60.5821 22.6176 60.5821 14.9263C60.5821 7.23501 54.3471 1 46.6558 1C38.9645 1 32.7295 7.23501 32.7295 14.9263C32.7295 22.6176 38.9645 28.8526 46.6558 28.8526Z" fill="#FDB813" stroke="#FDB813" stroke-miterlimit="10"/>
<path d="M14.9263 28.8526C22.6176 28.8526 28.8526 22.6176 28.8526 14.9263C28.8526 7.23501 22.6176 1 14.9263 1C7.23501 1 1 7.23501 1 14.9263C1 22.6176 7.23501 28.8526 14.9263 28.8526Z" fill="#6866AE" stroke="#6866AE" stroke-miterlimit="10"/>
<path d="M28.8526 14.9265H1V28.8528H28.8526V14.9265Z" fill="#6866AE" stroke="#6866AE" stroke-miterlimit="10"/>
<path d="M46.6558 61C54.3471 61 60.5821 54.765 60.5821 47.0737C60.5821 39.3825 54.3471 33.1475 46.6558 33.1475C38.9645 33.1475 32.7295 39.3825 32.7295 47.0737C32.7295 54.765 38.9645 61 46.6558 61Z" fill="#F23A3A" stroke="#F23A3A" stroke-miterlimit="10"/>
<path d="M60.5821 33.1475H32.7295V47.0737H60.5821V33.1475Z" fill="#F23A3A" stroke="#F23A3A" stroke-miterlimit="10"/>
</svg>
