<svg width="36" height="35" viewBox="0 0 36 35" fill="none" xmlns="http://www.w3.org/2000/svg">
<path d="M34.5881 8.68651C35.3355 7.93908 35.3355 6.73169 34.5881 5.98426L29.1644 0.560575C28.417 -0.186858 27.2096 -0.186858 26.4622 0.560575L17.8571 9.16564L10.4019 1.71047C8.90707 0.215606 6.47312 0.215606 4.97825 1.71047L1.33691 5.35181C-0.157958 6.84668 -0.157958 9.28063 1.33691 10.7755L8.79208 18.2307L0.148682 26.8741V35H8.27462L16.9372 26.3374L24.3924 33.7926C26.213 35.6133 28.6661 34.9425 29.816 33.7926L33.4574 30.1513C34.9522 28.6564 34.9522 26.2224 33.4574 24.7276L26.0022 17.2724L34.5881 8.68651ZM4.05833 8.05407L7.68051 4.41273L10.1145 6.84668L7.85299 9.12731L10.5553 11.8296L12.8359 9.54894L15.1357 11.8487L11.4943 15.4901L4.05833 8.05407ZM25.5806 22.3128L23.2999 24.5934L26.0022 27.2957L28.2828 25.0151L30.7168 27.449L27.0754 31.0903L19.6203 23.6352L23.2616 19.9938L25.5806 22.3128ZM6.68393 31.167H3.98167V28.4647L22.3992 10.0472L24.8906 12.5387L25.1015 12.7495L6.68393 31.167ZM25.1015 7.3258L27.8037 4.62355L30.506 7.3258L27.8037 10.0281L25.1015 7.3258Z" fill="#27BC83"/>
</svg>
