<svg width="36" height="35" viewBox="0 0 36 35" fill="none" xmlns="http://www.w3.org/2000/svg">
<path d="M20.086 35H15.2114C15.0554 35 14.9091 34.9214 14.8311 34.7938L12.3938 30.8472C12.3158 30.7207 12.3158 30.5646 12.3938 30.4382L14.8311 26.4915C14.9091 26.3651 15.0541 26.2853 15.2114 26.2853H19.8325L23.3618 20.5705C23.4836 20.3722 23.7517 20.3073 23.9601 20.4201C24.171 20.534 24.2416 20.7835 24.121 20.9795L20.5918 26.6955L22.9023 30.437C22.9803 30.5635 22.9803 30.7196 22.9023 30.846L20.465 34.7926C20.387 34.9214 20.2432 35 20.086 35ZM15.4648 34.1797H19.8325L22.0164 30.6432L19.8325 27.1068H15.4648L13.281 30.6432L15.4648 34.1797ZM32.2726 28.4295H27.398C27.2408 28.4295 27.097 28.3509 27.0178 28.2233L24.5804 24.2756C24.5024 24.1491 24.5024 23.993 24.5804 23.8665L26.891 20.125L23.3618 14.4102C23.2399 14.2142 23.3118 13.9624 23.5226 13.8496C23.731 13.7357 24.0004 13.8029 24.121 13.9989L27.6502 19.7137H32.2726C32.4298 19.7137 32.5736 19.7923 32.6529 19.9199L35.0902 23.8665C35.1682 23.993 35.1682 24.1491 35.0902 24.2756L32.6529 28.2233C32.5736 28.3498 32.4298 28.4295 32.2726 28.4295ZM27.6515 27.6081H32.0192L34.203 24.0716L32.0192 20.5352H27.6515L25.4676 24.0716L27.6515 27.6081ZM7.89938 28.4295H3.02473C2.86874 28.4295 2.7225 28.3509 2.6445 28.2233L0.207177 24.2756C0.129183 24.1491 0.129183 23.993 0.207177 23.8665L2.6445 19.9199C2.7225 19.7935 2.86874 19.7137 3.02473 19.7137H7.89938C8.05537 19.7137 8.20161 19.7923 8.2796 19.9199L10.5902 23.6603H17.6487C17.8912 23.6603 18.0874 23.8438 18.0874 24.0705C18.0874 24.2972 17.8912 24.4806 17.6487 24.4806H10.5902L8.2796 28.2222C8.20161 28.3498 8.05537 28.4295 7.89938 28.4295ZM3.27821 27.6081H7.6459L9.82974 24.0716L7.6459 20.5352H3.27821L1.09436 24.0716L3.27821 27.6081ZM11.5554 21.2062C11.403 21.2062 11.2556 21.1333 11.1751 21L7.6459 15.2852H3.02473C2.86874 15.2852 2.7225 15.2077 2.6445 15.0801L0.207177 11.1335C0.129183 11.007 0.129183 10.8498 0.207177 10.7233L2.6445 6.77669C2.7225 6.65023 2.86874 6.57161 3.02473 6.57161H7.89938C8.05537 6.57161 8.20161 6.64909 8.2796 6.77669L10.7169 10.7233C10.7949 10.8498 10.7949 11.007 10.7169 11.1335L8.40634 14.875L11.9356 20.591C12.0562 20.7869 11.9843 21.0376 11.7747 21.1504C11.7065 21.188 11.6309 21.2062 11.5554 21.2062ZM3.27821 14.4648H7.6459L9.82974 10.9284L7.6459 7.39193H3.27821L1.09436 10.9284L3.27821 14.4648ZM32.2726 15.2852H27.398C27.2408 15.2852 27.097 15.2077 27.0178 15.0801L24.7072 11.3374H17.6487C17.4062 11.3374 17.21 11.154 17.21 10.9272C17.21 10.7005 17.4062 10.5171 17.6487 10.5171H24.7072L27.0178 6.77555C27.0958 6.64909 27.2408 6.57048 27.398 6.57048H32.2726C32.4298 6.57048 32.5736 6.64795 32.6529 6.77555L35.0902 10.7222C35.1682 10.8486 35.1682 11.0059 35.0902 11.1323L32.6529 15.0789C32.5736 15.2077 32.4298 15.2852 32.2726 15.2852ZM27.6515 14.4648H32.0192L34.203 10.9284L32.0192 7.39193H27.6515L25.4676 10.9284L27.6515 14.4648ZM11.5554 14.6335C11.481 14.6335 11.4055 14.6164 11.336 14.5788C11.1264 14.4648 11.0545 14.2142 11.1751 14.0182L14.7044 8.30338L12.3938 4.56185C12.3158 4.43425 12.3158 4.27816 12.3938 4.15169L14.8311 0.205078C14.9091 0.077474 15.0554 0 15.2114 0H20.086C20.2432 0 20.387 0.077474 20.4662 0.205078L22.9036 4.15169C22.9816 4.27816 22.9816 4.43538 22.9036 4.56185L20.4662 8.50846C20.387 8.63607 20.2432 8.71354 20.086 8.71354H15.4648L11.9356 14.4295C11.8539 14.5605 11.7065 14.6335 11.5554 14.6335ZM15.4648 7.89323H19.8325L22.0164 4.35677L19.8325 0.820312H15.4648L13.281 4.35677L15.4648 7.89323Z" fill="#E06565"/>
</svg>
