<svg width="75" height="75" viewBox="0 0 75 75" fill="none" xmlns="http://www.w3.org/2000/svg">
<circle cx="37.5" cy="37.5" r="36" stroke="black" stroke-width="3"/>
<g clip-path="url(#clip0_201_195)">
<path d="M55 47C53.34 47 52 45.66 52 44V39C52 37.34 53.34 36 55 36C56.66 36 58 37.34 58 39V44C58 45.66 56.66 47 55 47ZM54 54H56V50.92C59.38 50.44 62 47.52 62 44H60C60 46.76 57.76 49 55 49C52.24 49 50 46.76 50 44H48C48 47.52 50.62 50.44 54 50.92V54ZM32 38C27.58 38 24 34.42 24 30C24 25.58 27.58 22 32 22C32.94 22 33.84 22.16 34.68 22.46C33 24.52 32 27.14 32 30C32 32.86 33 35.48 34.68 37.54C33.84 37.84 32.94 38 32 38ZM28.22 40.26C25.58 42.1 24 45.14 24 48.44V54H16V48.44C16 46.2 17.22 44.14 19.22 43.12C21.7 41.84 24.74 40.74 28.22 40.26ZM36 30C36 25.58 39.58 22 44 22C48.42 22 52 25.58 52 30C52 34.42 48.42 38 44 38C39.58 38 36 34.42 36 30ZM40 30C40 32.2 41.8 34 44 34C46.2 34 48 32.2 48 30C48 27.8 46.2 26 44 26C41.8 26 40 27.8 40 30ZM44 44C39.26 44 35.42 45.46 33.04 46.68C32.4 47 32 47.68 32 48.44V50H46.34C47.34 51.72 48.84 53.12 50.64 54H28V48.44C28 46.2 29.22 44.14 31.22 43.12C34.58 41.4 38.94 40 44 40C44.78 40 45.54 40.04 46.28 40.1C45.62 41.28 45.18 42.62 45.04 44.02C44.7 44 44.36 44 44 44Z" fill="black"/>
</g>
<defs>
<clipPath id="clip0_201_195">
<rect width="48" height="48" fill="white" transform="translate(14 14)"/>
</clipPath>
</defs>
</svg>
