<svg width="15" height="15" viewBox="0 0 15 15" fill="none" xmlns="http://www.w3.org/2000/svg">
<path d="M6.62568 1.875H8.48428V10.3917C7.69091 10.5545 6.88339 10.6385 6.0735 10.6425C3.80381 10.6402 2.62256 9.62625 2.62256 7.67906C2.62256 5.80406 3.87553 4.58531 5.81756 4.58531C6.08993 4.58 6.36176 4.61154 6.62568 4.67906V1.875ZM6.62568 6.16031C6.42363 6.09366 6.21168 6.06196 5.99897 6.06656C5.06147 6.06656 4.51631 6.63984 4.51631 7.64437C4.51631 8.62266 5.03521 9.16266 5.98725 9.16266C6.20092 9.16261 6.4143 9.14694 6.62568 9.11578V6.16266V6.16031Z" fill="#44B78B"/>
<path d="M11.4377 4.71516V8.98078C11.4377 10.4494 11.3275 11.1553 11.005 11.7642C10.6759 12.3833 10.1377 12.8656 9.48627 13.125L7.76221 12.3127C8.38855 12.0982 8.91314 11.6591 9.23455 11.0803C9.49986 10.5548 9.58377 9.94594 9.58377 8.34422V4.71516H11.4377Z" fill="#44B78B"/>
<path d="M11.4397 1.88438H9.58154V3.7725H11.4397V1.88438Z" fill="#44B78B"/>
</svg>
