<svg width="21" height="16" viewBox="0 0 21 16" fill="none" xmlns="http://www.w3.org/2000/svg">
<path fill-rule="evenodd" clip-rule="evenodd" d="M17.8125 0.5C19.3658 0.5 20.625 1.7592 20.625 3.3125V12.6875C20.625 14.2408 19.3658 15.5 17.8125 15.5H2.8125C1.2592 15.5 0 14.2408 0 12.6875V3.3125C0 1.7592 1.2592 0.5 2.8125 0.5H17.8125ZM17.1121 2.375H3.51298L9.73162 7.28441C10.0722 7.55338 10.5528 7.55338 10.8935 7.28441L17.1121 2.375ZM1.875 3.47075V12.6875C1.875 13.2053 2.29474 13.625 2.8125 13.625H17.8125C18.3303 13.625 18.75 13.2053 18.75 12.6875V3.47077L12.0552 8.75609C11.0334 9.56281 9.59156 9.56281 8.56978 8.75609L1.875 3.47075Z" fill="#0F0F0F"/>
</svg>
