<svg width="15" height="15" viewBox="0 0 15 15" fill="none" xmlns="http://www.w3.org/2000/svg">
<g clip-path="url(#clip0_203_363)">
<path d="M15 11.6175C14.7817 11.7001 14.5407 11.6999 14.3225 11.617C14.1043 11.5341 13.924 11.3742 13.8156 11.1675L11.6594 8.18562L11.3469 7.76875L8.84501 11.1712C8.74312 11.3693 8.5726 11.5234 8.36532 11.6049C8.15804 11.6863 7.9282 11.6895 7.71876 11.6137L10.9425 7.28875L7.94376 3.38187C8.15938 3.30417 8.39519 3.30314 8.61148 3.37896C8.82778 3.45477 9.01134 3.6028 9.13126 3.79812L11.3663 6.81687L13.6138 3.81062C13.7164 3.61612 13.887 3.46612 14.093 3.38914C14.2991 3.31217 14.5262 3.31358 14.7313 3.39312L13.5675 4.9375L11.9913 6.98937C11.9475 7.02842 11.9125 7.07628 11.8885 7.12981C11.8645 7.18334 11.8521 7.24134 11.8521 7.3C11.8521 7.35866 11.8645 7.41665 11.8885 7.47019C11.9125 7.52372 11.9475 7.57158 11.9913 7.61062L14.9938 11.6181L15 11.6175ZM0.0012575 7.235L0.263757 5.93812C0.985008 3.37375 3.92501 2.30687 5.94751 3.89437C7.13188 4.825 7.42751 6.1425 7.36938 7.6275H0.697508C0.589383 10.2794 2.50313 11.8806 4.95001 11.0625C5.34667 10.9197 5.70172 10.6808 5.98336 10.3671C6.26499 10.0534 6.46441 9.6747 6.56376 9.265C6.69313 8.84875 6.90626 8.7775 7.29751 8.8975C7.23231 9.40524 7.05282 9.89158 6.77255 10.3199C6.49228 10.7483 6.11852 11.1075 5.67938 11.3706C4.95402 11.7674 4.12177 11.9247 3.30165 11.8199C2.48152 11.7152 1.71551 11.3538 1.11313 10.7875C0.517526 10.1171 0.157555 9.27031 0.0881325 8.37625C0.0881325 8.22937 0.0381325 8.09187 0.0043825 7.96C0.00134002 7.71855 -0.000118348 7.47709 7.49767e-06 7.23562L0.0012575 7.235ZM0.705633 7.05625H6.73938C6.70188 5.13375 5.48876 3.77 3.87063 3.7575C2.06938 3.7325 0.780632 5.06625 0.701258 7.0475L0.705633 7.05625Z" fill="black"/>
</g>
<defs>
<clipPath id="clip0_203_363">
<rect width="15" height="15" fill="white"/>
</clipPath>
</defs>
</svg>
