<svg width="31" height="30" viewBox="0 0 31 30" fill="none" xmlns="http://www.w3.org/2000/svg">
<path d="M30.1845 14.9072C30.1492 12.0311 29.2927 9.22493 27.7158 6.81925C26.139 4.41357 23.9077 2.50854 21.2846 1.32853C18.6613 0.148517 15.7555 -0.257328 12.9094 0.158762C10.0634 0.57487 7.3954 1.79558 5.21983 3.67718C3.04424 5.55876 1.45163 8.02285 0.629543 10.7792C-0.192524 13.5356 -0.209843 16.4695 0.579661 19.2354C1.36917 22.0014 2.93259 24.484 5.08582 26.3911C7.23904 28.2983 9.89241 29.5504 12.7334 30V19.303H8.96022V14.9072H12.7334V11.5679C12.6461 10.7915 12.7302 10.0053 12.98 9.26496C13.2298 8.52459 13.639 7.84805 14.1787 7.28311C14.7185 6.71815 15.3756 6.27855 16.1038 5.99535C16.832 5.71214 17.6137 5.59221 18.3932 5.64405C19.5248 5.65954 20.6537 5.76045 21.7702 5.94591V9.71911H19.8836C19.5584 9.67807 19.2278 9.71067 18.9169 9.81449C18.6058 9.91831 18.3221 10.0907 18.0866 10.3189C17.8512 10.5471 17.6701 10.8253 17.5567 11.1329C17.4431 11.4406 17.4003 11.7698 17.431 12.0962V14.9449H21.6193L20.9401 19.3407H17.4499V29.9057C21.0154 29.3418 24.2607 27.5186 26.5971 24.7668C28.9334 22.015 30.2062 18.517 30.1845 14.9072Z" fill="black"/>
</svg>
