<svg width="52" height="52" viewBox="0 0 52 52" fill="none" xmlns="http://www.w3.org/2000/svg">
<path d="M12.6052 51C19.0146 51 24.2105 45.8042 24.2105 39.3948C24.2105 32.9854 19.0146 27.7896 12.6052 27.7896C6.19584 27.7896 1 32.9854 1 39.3948C1 45.8042 6.19584 51 12.6052 51Z" fill="#6AC4A2" stroke="#6AC4A2" stroke-miterlimit="10"/>
<path d="M39.0466 24.2105C45.456 24.2105 50.6519 19.0146 50.6519 12.6052C50.6519 6.19584 45.456 1 39.0466 1C32.6372 1 27.4414 6.19584 27.4414 12.6052C27.4414 19.0146 32.6372 24.2105 39.0466 24.2105Z" fill="#FDB813" stroke="#FDB813" stroke-miterlimit="10"/>
<path d="M12.6052 24.2105C19.0146 24.2105 24.2105 19.0146 24.2105 12.6052C24.2105 6.19584 19.0146 1 12.6052 1C6.19584 1 1 6.19584 1 12.6052C1 19.0146 6.19584 24.2105 12.6052 24.2105Z" fill="#6866AE" stroke="#6866AE" stroke-miterlimit="10"/>
<path d="M24.2105 12.6055H1V24.2107H24.2105V12.6055Z" fill="#6866AE" stroke="#6866AE" stroke-miterlimit="10"/>
<path d="M39.0466 51C45.456 51 50.6519 45.8042 50.6519 39.3948C50.6519 32.9854 45.456 27.7896 39.0466 27.7896C32.6372 27.7896 27.4414 32.9854 27.4414 39.3948C27.4414 45.8042 32.6372 51 39.0466 51Z" fill="#F23A3A" stroke="#F23A3A" stroke-miterlimit="10"/>
<path d="M50.6519 27.7896H27.4414V39.3948H50.6519V27.7896Z" fill="#F23A3A" stroke="#F23A3A" stroke-miterlimit="10"/>
</svg>
