<svg width="15" height="15" viewBox="0 0 15 15" fill="none" xmlns="http://www.w3.org/2000/svg">
<path fill-rule="evenodd" clip-rule="evenodd" d="M14.5625 3.39347C14.568 3.41351 14.5707 3.434 14.5707 3.45449V6.67416C14.5707 6.71558 14.5598 6.75627 14.539 6.79209C14.5182 6.82791 14.4883 6.85761 14.4523 6.87815L11.7504 8.43403V11.5176C11.7503 11.5588 11.7395 11.5993 11.7189 11.635C11.6982 11.6708 11.6686 11.7004 11.6329 11.7211L5.99221 14.9686C5.97901 14.9758 5.96489 14.9804 5.95123 14.9854C5.94577 14.9872 5.94076 14.9904 5.9353 14.9922C5.8959 15.0026 5.85449 15.0026 5.81509 14.9922C5.80826 14.9904 5.80279 14.9868 5.79642 14.9845C5.78367 14.9799 5.77001 14.9754 5.75772 14.9686L0.117932 11.7211C0.0821523 11.7005 0.0524209 11.6708 0.0317213 11.6351C0.0110218 11.5994 8.17798e-05 11.5589 0 11.5176V1.85854C0 1.83759 0.00273185 1.8171 0.00819588 1.79707C0.0100172 1.79024 0.0141151 1.78432 0.0163918 1.77749C0.0209451 1.76519 0.0250436 1.75244 0.0314182 1.74106C0.0359716 1.73332 0.0423462 1.7274 0.0473549 1.72012C0.0541849 1.71101 0.0605594 1.70099 0.0683001 1.6928C0.0751302 1.68597 0.0837818 1.68096 0.0915225 1.67504C0.100174 1.66821 0.107459 1.66047 0.117476 1.655L2.93782 0.0312767C2.9735 0.010784 3.01393 0 3.05507 0C3.09622 0 3.13664 0.010784 3.17232 0.0312767L5.99267 1.655C6.00223 1.66092 6.01043 1.66821 6.01862 1.67504C6.02636 1.68096 6.03501 1.68596 6.04139 1.69234C6.05004 1.70145 6.05596 1.71055 6.06279 1.72012C6.0678 1.7274 6.07463 1.73332 6.07873 1.74106C6.08556 1.75244 6.0892 1.76519 6.09421 1.77749C6.09649 1.78432 6.10058 1.79024 6.10195 1.79752C6.10748 1.8174 6.11039 1.83791 6.1106 1.85854V7.89173L8.46013 6.53847V3.45449C8.46035 3.43386 8.46325 3.41335 8.46878 3.39347C8.4706 3.38619 8.47425 3.37981 8.47698 3.37344C8.48153 3.36114 8.48563 3.34839 8.49201 3.33701C8.49656 3.32927 8.50293 3.32335 8.50794 3.31607C8.51477 3.30696 8.52069 3.29694 8.52889 3.28875C8.53572 3.28192 8.54437 3.27736 8.55165 3.27144C8.56076 3.26416 8.5685 3.25642 8.57761 3.25095L11.3984 1.62723C11.4341 1.60669 11.4745 1.59588 11.5157 1.59588C11.5568 1.59588 11.5972 1.60669 11.6329 1.62723L14.4533 3.25095C14.4633 3.25687 14.4706 3.26461 14.4797 3.27099C14.4869 3.27691 14.4951 3.28192 14.5024 3.28875C14.5102 3.29694 14.5161 3.30696 14.5234 3.31607C14.5284 3.32335 14.5348 3.32973 14.5389 3.33701C14.5457 3.34839 14.5498 3.36114 14.5543 3.37344C14.5571 3.38027 14.5607 3.38619 14.5625 3.39347ZM14.1008 6.53847V3.8611L13.1137 4.42936L11.7504 5.21436V7.89173L14.1008 6.53847ZM11.2805 11.3819V8.70268L9.93952 9.46856L6.11015 11.6542V14.3589L11.2805 11.3819ZM0.469906 2.26515V11.3819L5.64024 14.3584V11.6546L2.93919 10.1261L2.93828 10.1252L2.93691 10.1247C2.92781 10.1192 2.92052 10.1119 2.91187 10.1051C2.90458 10.0997 2.89593 10.0946 2.88956 10.0883L2.8891 10.0874C2.88136 10.0801 2.8759 10.071 2.86952 10.0628C2.8636 10.055 2.85677 10.0482 2.85222 10.04L2.85177 10.0391C2.8463 10.03 2.84311 10.0195 2.83947 10.0095C2.83537 10.0008 2.83036 9.99265 2.82809 9.98309C2.82536 9.9717 2.8249 9.96032 2.82353 9.94848C2.82217 9.93937 2.81989 9.93118 2.81989 9.92207V3.61795L1.45707 2.83296L0.469906 2.26515ZM3.0553 0.506191L0.705769 1.85854L3.05484 3.21088L5.40438 1.85854L3.0553 0.506191ZM4.27742 8.94674L5.64024 8.1622V2.26515L4.65353 2.83296L3.29025 3.61795V9.515L4.27742 8.94674ZM11.5154 2.10214L9.1659 3.45449L11.5154 4.80683L13.8641 3.45449L11.5154 2.10214ZM11.28 5.21436L9.91675 4.42936L8.93004 3.8611V6.53847L10.2929 7.32302L11.28 7.89173V5.21436ZM5.87428 11.2476L9.32026 9.2805L11.0428 8.29698L8.69508 6.94554L5.99221 8.50188L3.52885 9.92025L5.87428 11.2476Z" fill="#FF2D20"/>
</svg>
