<svg width="28" height="20" viewBox="0 0 28 20" fill="none" xmlns="http://www.w3.org/2000/svg">
<path fill-rule="evenodd" clip-rule="evenodd" d="M23.75 0C25.8211 0 27.5 1.67894 27.5 3.75V16.25C27.5 18.3211 25.8211 20 23.75 20H3.75C1.67894 20 0 18.3211 0 16.25V3.75C0 1.67894 1.67894 0 3.75 0H23.75ZM22.8161 2.5H4.68398L12.9755 9.04588C13.4296 9.4045 14.0704 9.4045 14.5246 9.04588L22.8161 2.5ZM2.5 3.961V16.25C2.5 16.9404 3.05965 17.5 3.75 17.5H23.75C24.4404 17.5 25 16.9404 25 16.25V3.96102L16.0736 11.0081C14.7113 12.0838 12.7887 12.0838 11.4264 11.0081L2.5 3.961Z" fill="#0F0F0F"/>
</svg>
