<svg width="177" height="52" viewBox="0 0 177 52" fill="none" xmlns="http://www.w3.org/2000/svg">
<path d="M12.6052 51C19.0146 51 24.2105 45.8042 24.2105 39.3948C24.2105 32.9854 19.0146 27.7895 12.6052 27.7895C6.19584 27.7895 1 32.9854 1 39.3948C1 45.8042 6.19584 51 12.6052 51Z" fill="#6AC4A2" stroke="#6AC4A2" stroke-miterlimit="10"/>
<path d="M39.0466 24.2105C45.456 24.2105 50.6519 19.0146 50.6519 12.6052C50.6519 6.19584 45.456 1 39.0466 1C32.6372 1 27.4414 6.19584 27.4414 12.6052C27.4414 19.0146 32.6372 24.2105 39.0466 24.2105Z" fill="#FDB813" stroke="#FDB813" stroke-miterlimit="10"/>
<path d="M12.6052 24.2105C19.0146 24.2105 24.2105 19.0146 24.2105 12.6052C24.2105 6.19584 19.0146 1 12.6052 1C6.19584 1 1 6.19584 1 12.6052C1 19.0146 6.19584 24.2105 12.6052 24.2105Z" fill="#6866AE" stroke="#6866AE" stroke-miterlimit="10"/>
<path d="M24.2105 12.6052H1V24.2105H24.2105V12.6052Z" fill="#6866AE" stroke="#6866AE" stroke-miterlimit="10"/>
<path d="M39.0466 51C45.456 51 50.6519 45.8042 50.6519 39.3948C50.6519 32.9854 45.456 27.7895 39.0466 27.7895C32.6372 27.7895 27.4414 32.9854 27.4414 39.3948C27.4414 45.8042 32.6372 51 39.0466 51Z" fill="#F23A3A" stroke="#F23A3A" stroke-miterlimit="10"/>
<path d="M50.6519 27.7895H27.4414V39.3948H50.6519V27.7895Z" fill="#F23A3A" stroke="#F23A3A" stroke-miterlimit="10"/>
<path d="M59.9131 5.97633V3.78061H71.8386V5.97633H59.9131ZM64.6759 18.4079V4.20304H67.0805V18.4079H64.6759Z" fill="#6867AE"/>
<path d="M80.5748 18.6167C79.5164 18.6167 78.5369 18.4264 77.641 18.0411C76.7404 17.6605 75.9605 17.122 75.2921 16.435C74.6236 15.7479 74.1083 14.9448 73.7462 14.0303C73.3842 13.1205 73.2031 12.141 73.2031 11.0965C73.2031 10.0521 73.3842 9.07259 73.7462 8.16274C74.1083 7.25289 74.6236 6.45445 75.2921 5.77206C75.9605 5.08967 76.745 4.55583 77.641 4.1659C78.5369 3.77596 79.5164 3.58099 80.5748 3.58099C81.7585 3.58099 82.7798 3.77596 83.6478 4.1659C84.5113 4.55583 85.2772 5.08503 85.9457 5.75349L84.3163 7.38287C83.8846 6.90938 83.36 6.54265 82.738 6.27341C82.1159 6.00881 81.3964 5.87883 80.5748 5.87883C79.8506 5.87883 79.1868 6.00416 78.5926 6.25484C77.9938 6.50551 77.4738 6.86296 77.0375 7.33181C76.6011 7.80066 76.2623 8.35307 76.0255 8.99368C75.7888 9.63429 75.6681 10.3399 75.6681 11.1012C75.6681 11.8671 75.7841 12.5727 76.0255 13.2087C76.2623 13.8493 76.6011 14.4017 77.0375 14.8706C77.4738 15.3394 77.9938 15.6969 78.5926 15.9475C79.1914 16.1982 79.8506 16.3235 80.5748 16.3235C81.4661 16.3235 82.2227 16.1889 82.8401 15.915C83.4575 15.6412 83.9867 15.2698 84.4184 14.7963L86.0478 16.4257C85.3793 17.1081 84.5902 17.6465 83.6896 18.0318C82.7798 18.4218 81.7446 18.6167 80.5748 18.6167Z" fill="#6867AE"/>
<path d="M88.1973 18.4078V3.78525H90.6019V18.4078H88.1973ZM89.8499 11.9321V9.74106H98.0153V11.9321H89.8499ZM97.4954 18.4078V3.78525H99.9V18.4078H97.4954Z" fill="#6867AE"/>
<path d="M103.07 18.4078V3.78525H105.475V18.4078H103.07Z" fill="#6867AE"/>
<path d="M107.564 18.4078L113.581 3.78525H115.252L121.226 18.4078H118.636L113.957 6.56122H114.834L110.113 18.4078H107.564ZM110.531 15.5855V13.4965H118.283V15.5855H110.531Z" fill="#6867AE"/>
<path d="M122.229 5.97633V3.78061H134.159V5.97633H122.229ZM126.991 18.4079V4.20304H129.391V18.4079H126.991Z" fill="#6867AE"/>
<path d="M141.883 18.6167C140.783 18.6167 139.794 18.3661 138.917 17.8647C138.04 17.3634 137.348 16.6764 136.837 15.8083C136.331 14.9402 136.076 13.9514 136.076 12.8513V3.78526H138.481V12.8281C138.481 13.5383 138.629 14.1557 138.931 14.6756C139.233 15.1955 139.637 15.604 140.152 15.8872C140.667 16.175 141.243 16.3143 141.888 16.3143C142.543 16.3143 143.118 16.1704 143.62 15.8872C144.121 15.604 144.52 15.1955 144.813 14.6756C145.105 14.1557 145.254 13.5429 145.254 12.8466V3.78061H147.654V12.8698C147.654 13.97 147.403 14.9495 146.902 15.8129C146.4 16.6763 145.718 17.3587 144.854 17.8601C143.986 18.3661 142.998 18.6167 141.883 18.6167Z" fill="#6867AE"/>
<path d="M150.657 18.4078V3.78525H153.057V18.4078H150.657ZM152.305 12.2014V10.2192H156.005C156.743 10.2192 157.319 10.0289 157.727 9.64357C158.136 9.26292 158.345 8.72908 158.345 8.04669C158.345 7.43393 158.14 6.91866 157.736 6.50087C157.333 6.08308 156.762 5.87419 156.023 5.87419H152.305V3.78525H156.13C157.049 3.78525 157.857 3.97093 158.553 4.33766C159.25 4.70903 159.788 5.21037 160.174 5.84169C160.554 6.47766 160.749 7.19719 160.749 8.00491C160.749 8.85441 160.559 9.59251 160.174 10.2192C159.788 10.8459 159.25 11.3333 158.553 11.6814C157.857 12.0296 157.049 12.2014 156.13 12.2014H152.305ZM158.679 18.4078L153.559 12.0575L155.796 11.2451L161.705 18.4125H158.679V18.4078Z" fill="#6867AE"/>
<path d="M162.689 18.4078L168.706 3.78525H170.377L176.351 18.4078H173.761L169.082 6.56122H169.959L165.238 18.4078H162.689ZM165.656 15.5855V13.4965H173.408V15.5855H165.656Z" fill="#6867AE"/>
<path d="M68 50.6272V36.0046H69.6712L75.7523 46.013H74.6661L80.7472 36.0046H82.4183V50.6272H80.0137V40.2243L80.5569 40.3682L76.0448 47.7863H74.3736L69.8615 40.3682L70.4046 40.2243V50.6272H68Z" fill="#F1626D"/>
<path d="M91.2291 50.8361C90.129 50.8361 89.1402 50.5855 88.2628 50.0841C87.3855 49.5828 86.6938 48.8957 86.1832 48.0277C85.6726 47.1596 85.4219 46.1708 85.4219 45.0707V36.0046H87.8218V45.0474C87.8218 45.7577 87.9704 46.3751 88.2721 46.895C88.5692 47.4149 88.9777 47.8234 89.493 48.1066C90.0083 48.3944 90.5839 48.5337 91.2245 48.5337C91.879 48.5337 92.4547 48.3897 92.956 48.1066C93.4573 47.8234 93.8566 47.4149 94.149 46.895C94.4415 46.3751 94.59 45.7623 94.59 45.066V36H96.99V45.0892C96.99 46.1894 96.7393 47.1689 96.238 48.0323C95.7366 48.8957 95.0542 49.5781 94.1908 50.0795C93.332 50.5855 92.3432 50.8361 91.2291 50.8361Z" fill="#F1626D"/>
<path d="M100.003 50.6272V36.0046H102.403V50.6272H100.003ZM101.651 50.6272V48.4315H109.296V50.6272H101.651Z" fill="#F1626D"/>
<path d="M110.405 38.2003V36.0046H122.335V38.2003H110.405ZM115.168 50.6272V36.4224H117.568V50.6272H115.168Z" fill="#F1626D"/>
<path d="M124.42 50.6272V36.0046H126.82V50.6272H124.42Z" fill="#F1626D"/>
<path d="M130 50.6272V36.0046H132.4V50.6272H130ZM131.648 50.6272V48.4315H135.492C136.494 48.4315 137.376 48.218 138.133 47.7816C138.89 47.3499 139.484 46.7464 139.911 45.9759C140.338 45.2053 140.547 44.3093 140.547 43.2927C140.547 42.29 140.333 41.408 139.902 40.6421C139.47 39.8761 138.876 39.2773 138.114 38.8456C137.353 38.4139 136.48 38.1957 135.492 38.1957H131.648V36H135.557C136.615 36 137.594 36.1857 138.504 36.5524C139.41 36.9238 140.199 37.439 140.876 38.0982C141.55 38.762 142.079 39.5326 142.455 40.4193C142.831 41.3059 143.016 42.2668 143.016 43.3113C143.016 44.3418 142.826 45.3028 142.455 46.194C142.079 47.0853 141.554 47.8606 140.886 48.5244C140.217 49.1882 139.428 49.7035 138.528 50.0702C137.622 50.4369 136.647 50.6226 135.603 50.6226H131.648V50.6272Z" fill="#F1626D"/>
<path d="M145.458 50.6272V36.0046H147.858V50.6272H145.458ZM147.106 38.2003V36.0046H155.192V38.2003H147.106ZM147.106 44.2119V42.1044H154.584V44.2119H147.106ZM147.106 50.6272V48.4315H155.295V50.6272H147.106Z" fill="#F1626D"/>
<path d="M162.605 50.6272L156.691 36.0046H159.3L163.919 47.8513H163L167.661 36.0046H170.232L164.277 50.6272H162.605Z" fill="#F1626D"/>
<path d="M68 50.6272V36.0046H69.6712L75.7523 46.013H74.6661L80.7472 36.0046H82.4183V50.6272H80.0137V40.2243L80.5569 40.3682L76.0448 47.7863H74.3736L69.8615 40.3682L70.4046 40.2243V50.6272H68Z" fill="#F23A3A"/>
<path d="M91.2291 50.8361C90.129 50.8361 89.1402 50.5855 88.2628 50.0841C87.3855 49.5828 86.6938 48.8957 86.1832 48.0277C85.6726 47.1596 85.4219 46.1708 85.4219 45.0707V36.0046H87.8218V45.0474C87.8218 45.7577 87.9704 46.3751 88.2721 46.895C88.5692 47.4149 88.9777 47.8234 89.493 48.1066C90.0083 48.3944 90.5839 48.5337 91.2245 48.5337C91.879 48.5337 92.4547 48.3897 92.956 48.1066C93.4573 47.8234 93.8566 47.4149 94.149 46.895C94.4415 46.3751 94.59 45.7623 94.59 45.066V36H96.99V45.0892C96.99 46.1894 96.7393 47.1689 96.238 48.0323C95.7366 48.8957 95.0542 49.5781 94.1908 50.0795C93.332 50.5855 92.3432 50.8361 91.2291 50.8361Z" fill="#F23A3A"/>
<path d="M100.003 50.6272V36.0046H102.403V50.6272H100.003ZM101.651 50.6272V48.4315H109.296V50.6272H101.651Z" fill="#F23A3A"/>
<path d="M110.405 38.2003V36.0046H122.335V38.2003H110.405ZM115.168 50.6272V36.4224H117.568V50.6272H115.168Z" fill="#F23A3A"/>
<path d="M124.42 50.6272V36.0046H126.82V50.6272H124.42Z" fill="#F23A3A"/>
<path d="M130 50.6272V36.0046H132.4V50.6272H130ZM131.648 50.6272V48.4315H135.492C136.494 48.4315 137.376 48.218 138.133 47.7816C138.89 47.3499 139.484 46.7464 139.911 45.9759C140.338 45.2053 140.547 44.3093 140.547 43.2927C140.547 42.29 140.333 41.408 139.902 40.6421C139.47 39.8761 138.876 39.2773 138.114 38.8456C137.353 38.4139 136.48 38.1957 135.492 38.1957H131.648V36H135.557C136.615 36 137.594 36.1857 138.504 36.5524C139.41 36.9238 140.199 37.439 140.876 38.0982C141.55 38.762 142.079 39.5326 142.455 40.4193C142.831 41.3059 143.016 42.2668 143.016 43.3113C143.016 44.3418 142.826 45.3028 142.455 46.194C142.079 47.0853 141.554 47.8606 140.886 48.5244C140.217 49.1882 139.428 49.7035 138.528 50.0702C137.622 50.4369 136.647 50.6226 135.603 50.6226H131.648V50.6272Z" fill="#F23A3A"/>
<path d="M145.458 50.6272V36.0046H147.858V50.6272H145.458ZM147.106 38.2003V36.0046H155.192V38.2003H147.106ZM147.106 44.2119V42.1044H154.584V44.2119H147.106ZM147.106 50.6272V48.4315H155.295V50.6272H147.106Z" fill="#F23A3A"/>
<path d="M162.605 50.6272L156.691 36.0046H159.3L163.919 47.8513H163L167.661 36.0046H170.232L164.277 50.6272H162.605Z" fill="#F23A3A"/>
</svg>
