<svg width="36" height="35" viewBox="0 0 36 35" fill="none" xmlns="http://www.w3.org/2000/svg">
<path d="M21.9513 4.55442C21.9513 2.38532 17.1314 0.628418 11.1859 0.628418C5.24001 0.628418 0.42041 2.38532 0.42041 4.55442V7.77534C0.42041 9.9437 5.24001 11.7006 11.1859 11.7006C11.5921 11.7006 11.9923 11.692 12.3869 11.6755C12.596 8.87504 17.0027 7.22549 21.9513 6.8204V4.55442Z" fill="#3F2E84"/>
<path d="M0.419189 9.94287L0.420686 10.2335V15.2629C0.420686 17.4317 5.24029 19.1886 11.1861 19.1886C11.5879 19.1886 11.9847 19.1803 12.3756 19.1643V13.5528C11.9847 13.5685 11.5882 13.5775 11.1861 13.5775C5.50885 13.5779 0.828397 11.9747 0.419189 9.94287Z" fill="#3F2E84"/>
<path d="M0.422899 17.5212L0.420654 17.8122V22.8421C0.420654 25.0097 5.24026 26.7666 11.1861 26.7666C11.5878 26.7666 11.9847 26.758 12.3756 26.7426V22.5915V21.1312C11.9847 21.148 11.5882 21.1559 11.1861 21.1559C5.50882 21.1559 0.831733 19.5527 0.422899 17.5212Z" fill="#3F2E84"/>
<path d="M24.6534 8.23315C18.7079 8.23315 13.8872 9.99006 13.8872 12.158V15.3793C13.8872 17.5481 18.7079 19.3046 24.6534 19.3046C30.5989 19.3046 35.4189 17.5484 35.4189 15.3793V12.158C35.4189 9.99006 30.5989 8.23315 24.6534 8.23315Z" fill="#3F2E84"/>
<path d="M24.6534 21.182C18.9769 21.182 14.2998 19.5796 13.8909 17.5466L13.8872 17.8373V22.866C13.8872 25.0351 18.7079 26.7916 24.6534 26.7916C30.5989 26.7916 35.4189 25.0354 35.4189 22.8663V17.8376C35.4189 17.7393 35.3983 17.6439 35.3789 17.547C34.9689 19.5796 30.33 21.182 24.6534 21.182Z" fill="#3F2E84"/>
<path d="M24.6533 28.7602C18.9768 28.7602 14.3034 27.1571 13.8942 25.126L13.8867 25.4155V30.4449C13.8867 32.6144 18.7078 34.3709 24.6529 34.3709C30.598 34.3709 35.4184 32.6144 35.4184 30.4449V25.4159C35.4184 25.3182 35.3974 25.221 35.3784 25.1264C34.9688 27.1567 30.3298 28.7602 24.6533 28.7602Z" fill="#3F2E84"/>
</svg>
