<svg width="25" height="26" viewBox="0 0 25 26" fill="none" xmlns="http://www.w3.org/2000/svg">
<path d="M23.5 4.875C23.5 15.5755 14.8255 24.25 4.125 24.25C3.64222 24.25 3.16357 24.2324 2.68965 24.1976C2.14577 24.1577 1.87382 24.1379 1.62629 23.9954C1.42126 23.8774 1.22683 23.6681 1.12406 23.455C1 23.1978 1 22.8976 1 22.2975V18.7759C1 18.2711 1 18.0188 1.08306 17.8025C1.15644 17.6114 1.27561 17.4412 1.43012 17.307C1.60504 17.155 1.8422 17.0687 2.31651 16.8962L6.32506 15.4386C6.87691 15.238 7.15284 15.1376 7.41462 15.1546C7.64546 15.1696 7.8676 15.2485 8.05632 15.3822C8.27035 15.5339 8.42141 15.7856 8.72352 16.2893L9.75 18C13.0624 16.4999 15.7476 13.8111 17.25 10.5L15.5393 9.47352C15.0356 9.17141 14.7839 9.02035 14.6322 8.80632C14.4985 8.6176 14.4196 8.39546 14.4046 8.16462C14.3876 7.90284 14.488 7.62691 14.6886 7.07506L16.1462 3.06651C16.3187 2.5922 16.405 2.35504 16.557 2.18012C16.6912 2.02561 16.8614 1.90644 17.0525 1.83306C17.2688 1.75 17.5211 1.75 18.0259 1.75H21.5475C22.1476 1.75 22.4478 1.75 22.705 1.87406C22.9181 1.97683 23.1274 2.17126 23.2454 2.37629C23.3879 2.62384 23.4077 2.89577 23.4476 3.43966C23.4824 3.91357 23.5 4.39222 23.5 4.875Z" stroke="black" stroke-width="2" stroke-linecap="round" stroke-linejoin="round"/>
</svg>
