<svg width="75" height="75" viewBox="0 0 75 75" fill="none" xmlns="http://www.w3.org/2000/svg">
<circle cx="37.5" cy="37.5" r="36" stroke="black" stroke-width="3"/>
<g clip-path="url(#clip0_201_404)">
<path d="M27.08 24C27.2 25.78 27.5 27.52 27.98 29.18L25.58 31.58C24.76 29.18 24.24 26.64 24.06 24H27.08ZM46.8 48.04C48.5 48.52 50.24 48.82 52 48.94V51.92C49.36 51.74 46.82 51.22 44.4 50.42L46.8 48.04ZM29 20H22C20.9 20 20 20.9 20 22C20 40.78 35.22 56 54 56C55.1 56 56 55.1 56 54V47.02C56 45.92 55.1 45.02 54 45.02C51.52 45.02 49.1 44.62 46.86 43.88C46.66 43.8 46.44 43.78 46.24 43.78C45.72 43.78 45.22 43.98 44.82 44.36L40.42 48.76C34.76 45.86 30.12 41.24 27.24 35.58L31.64 31.18C32.2 30.62 32.36 29.84 32.14 29.14C31.4 26.9 31 24.5 31 22C31 20.9 30.1 20 29 20Z" fill="black"/>
</g>
<defs>
<clipPath id="clip0_201_404">
<rect width="48" height="48" fill="white" transform="translate(14 14)"/>
</clipPath>
</defs>
</svg>
