<svg width="15" height="15" viewBox="0 0 15 15" fill="none" xmlns="http://www.w3.org/2000/svg">
<path d="M8.75561 7.4887C8.75561 6.81633 8.19344 6.27117 7.49987 6.27117C6.80641 6.27117 6.24414 6.81633 6.24414 7.4887C6.24414 8.16117 6.80641 8.70628 7.49987 8.70628C8.19344 8.70628 8.75561 8.16117 8.75561 7.4887Z" fill="#53C1DE"/>
<path fill-rule="evenodd" clip-rule="evenodd" d="M11.5783 5.2283C11.8435 4.18349 12.1768 2.24601 11.0017 1.58914C9.83217 0.935132 8.31019 2.18833 7.50652 2.94055C6.70519 2.19582 5.14045 0.947985 3.96639 1.60694C2.79727 2.26314 3.1578 4.1685 3.42886 5.21986C2.33827 5.52019 0.46875 6.16706 0.46875 7.4887C0.46875 8.80659 2.33632 9.51037 3.42046 9.81042C3.1484 10.8676 2.80592 12.7457 3.97653 13.4005C5.15498 14.0593 6.71484 12.8412 7.52597 12.0807C8.3348 12.8374 9.84216 14.0635 11.012 13.4069C12.1854 12.7483 11.8798 10.8367 11.6087 9.7793C12.6597 9.47859 14.5312 8.79014 14.5312 7.4887C14.5312 6.17977 12.6517 5.52764 11.5783 5.2283ZM11.4451 9.21891C11.2671 8.67262 11.0269 8.0917 10.733 7.49161C11.0135 6.90567 11.2444 6.33225 11.4174 5.78948C12.2043 6.01069 13.9305 6.51623 13.9305 7.4887C13.9305 8.47031 12.274 8.98064 11.4451 9.21891ZM10.7109 12.9028C9.83813 13.3927 8.54161 12.2201 7.94428 11.6629C8.34056 11.2427 8.73656 10.7542 9.12305 10.2117C9.80292 10.1532 10.4452 10.0576 11.0276 9.92705C11.2184 10.675 11.5876 12.4108 10.7109 12.9028ZM4.2767 12.8958C3.4038 12.4078 3.80277 10.7318 4.00292 9.95311C4.57891 10.0767 5.21653 10.1655 5.898 10.2191C6.28702 10.7499 6.6945 11.2379 7.10513 11.6652C6.5978 12.141 5.15367 13.3861 4.2767 12.8958ZM1.06945 7.4887C1.06945 6.50344 2.78535 6.00155 3.59017 5.78091C3.76618 6.33586 3.99701 6.91612 4.27558 7.50291C3.9934 8.09841 3.75927 8.68786 3.58165 9.24937C2.81423 9.03637 1.06945 8.47458 1.06945 7.4887ZM4.26736 2.11103C5.14383 1.61914 6.50377 2.81711 7.08558 3.35631C6.67706 3.78166 6.27333 4.26591 5.88764 4.79367C5.22628 4.85311 4.59316 4.94855 4.01114 5.07642C3.79277 4.22846 3.39184 2.6024 4.26736 2.11103ZM9.5528 5.42676C10.0015 5.48166 10.4314 5.55469 10.835 5.64403C10.7138 6.02062 10.5628 6.41442 10.3849 6.81811C10.1271 6.34373 9.85027 5.87887 9.5528 5.42676ZM7.5067 3.77255C7.78378 4.06358 8.06128 4.38858 8.33428 4.74117C7.78055 4.71576 7.22592 4.71567 6.67219 4.7408C6.94542 4.39147 7.22531 4.06696 7.5067 3.77255ZM4.62023 6.81769C4.44529 6.41541 4.29562 6.01987 4.17338 5.63789C4.57462 5.55084 5.0025 5.47969 5.44828 5.42569C5.14997 5.87681 4.87364 6.34148 4.62023 6.81769ZM5.46108 9.5933C5.00058 9.54347 4.56622 9.47592 4.16511 9.39126C4.28927 9.00258 4.44224 8.59852 4.62092 8.18756C4.87781 8.66873 5.15836 9.13791 5.46108 9.5933ZM7.52334 11.246C7.23863 10.9481 6.95461 10.6186 6.67725 10.2643C7.23412 10.2855 7.79208 10.2855 8.34891 10.2614C8.07506 10.6222 7.79855 10.9522 7.52334 11.246ZM10.3906 8.16666C10.5786 8.58206 10.737 8.98392 10.8629 9.36605C10.4551 9.45628 10.0149 9.52894 9.55111 9.58289C9.85078 9.1222 10.132 8.65012 10.3906 8.16666ZM8.7878 9.65348C7.93598 9.7125 7.07888 9.71184 6.22678 9.65831C5.74261 8.97258 5.31159 8.25141 4.93955 7.50272C5.30981 6.75558 5.73769 6.03581 6.21956 5.35116C7.07227 5.28867 7.93022 5.28848 8.78292 5.35153C9.26067 6.03614 9.68789 6.75403 10.0667 7.49442C9.69239 8.24119 9.26227 8.96241 8.7878 9.65348ZM10.7017 2.09372C11.5784 2.584 11.1882 4.32528 10.9966 5.08247C10.4132 4.95192 9.77967 4.8548 9.11639 4.79442C8.72995 4.26096 8.32959 3.77587 7.92769 3.35601C8.51695 2.80519 9.83348 1.60823 10.7017 2.09372Z" fill="#53C1DE"/>
</svg>
