<svg width="479" height="30" viewBox="0 0 479 30" fill="none" xmlns="http://www.w3.org/2000/svg">
<path d="M6.80262 27.5C10.0073 27.5 12.6052 24.9021 12.6052 21.6974C12.6052 18.4927 10.0073 15.8948 6.80262 15.8948C3.59792 15.8948 1 18.4927 1 21.6974C1 24.9021 3.59792 27.5 6.80262 27.5Z" fill="#6AC4A2" stroke="#6AC4A2" stroke-miterlimit="10"/>
<path d="M20.0233 14.1052C23.228 14.1052 25.8259 11.5073 25.8259 8.30262C25.8259 5.09792 23.228 2.5 20.0233 2.5C16.8186 2.5 14.2207 5.09792 14.2207 8.30262C14.2207 11.5073 16.8186 14.1052 20.0233 14.1052Z" fill="#FDB813" stroke="#FDB813" stroke-miterlimit="10"/>
<path d="M6.80262 14.1052C10.0073 14.1052 12.6052 11.5073 12.6052 8.30262C12.6052 5.09792 10.0073 2.5 6.80262 2.5C3.59792 2.5 1 5.09792 1 8.30262C1 11.5073 3.59792 14.1052 6.80262 14.1052Z" fill="#6866AE" stroke="#6866AE" stroke-miterlimit="10"/>
<path d="M12.6052 8.30263H1V14.1052H12.6052V8.30263Z" fill="#6866AE" stroke="#6866AE" stroke-miterlimit="10"/>
<path d="M20.0233 27.5C23.228 27.5 25.8259 24.9021 25.8259 21.6974C25.8259 18.4927 23.228 15.8948 20.0233 15.8948C16.8186 15.8948 14.2207 18.4927 14.2207 21.6974C14.2207 24.9021 16.8186 27.5 20.0233 27.5Z" fill="#F23A3A" stroke="#F23A3A" stroke-miterlimit="10"/>
<path d="M25.8259 15.8948H14.2207V21.6974H25.8259V15.8948Z" fill="#F23A3A" stroke="#F23A3A" stroke-miterlimit="10"/>
<path d="M42.3302 24.24C41.0022 24.24 39.8742 24 38.9462 23.52C38.0182 23.04 37.1862 22.336 36.4502 21.408L38.3222 19.536C38.7862 20.208 39.3382 20.736 39.9782 21.12C40.6182 21.488 41.4342 21.672 42.4262 21.672C43.3542 21.672 44.0902 21.48 44.6342 21.096C45.1942 20.712 45.4742 20.184 45.4742 19.512C45.4742 18.952 45.3302 18.496 45.0422 18.144C44.7542 17.792 44.3702 17.504 43.8902 17.28C43.4262 17.04 42.9062 16.832 42.3302 16.656C41.7702 16.464 41.2022 16.256 40.6262 16.032C40.0662 15.792 39.5462 15.496 39.0662 15.144C38.6022 14.792 38.2262 14.336 37.9382 13.776C37.6502 13.216 37.5062 12.504 37.5062 11.64C37.5062 10.648 37.7462 9.808 38.2262 9.12C38.7222 8.416 39.3862 7.88 40.2182 7.512C41.0502 7.144 41.9782 6.96 43.0022 6.96C44.1062 6.96 45.0902 7.176 45.9542 7.608C46.8342 8.04 47.5462 8.592 48.0902 9.264L46.2182 11.136C45.7382 10.592 45.2342 10.192 44.7062 9.936C44.1942 9.664 43.6022 9.528 42.9302 9.528C42.0982 9.528 41.4422 9.696 40.9622 10.032C40.4982 10.368 40.2662 10.84 40.2662 11.448C40.2662 11.96 40.4102 12.376 40.6982 12.696C40.9862 13 41.3622 13.264 41.8262 13.488C42.3062 13.696 42.8262 13.896 43.3862 14.088C43.9622 14.28 44.5302 14.496 45.0902 14.736C45.6662 14.976 46.1862 15.288 46.6502 15.672C47.1302 16.04 47.5142 16.52 47.8022 17.112C48.0902 17.704 48.2342 18.448 48.2342 19.344C48.2342 20.848 47.6982 22.04 46.6262 22.92C45.5702 23.8 44.1382 24.24 42.3302 24.24ZM55.7655 24.24C54.6455 24.24 53.6295 23.976 52.7175 23.448C51.8055 22.904 51.0775 22.176 50.5335 21.264C50.0055 20.352 49.7415 19.336 49.7415 18.216C49.7415 17.096 50.0055 16.088 50.5335 15.192C51.0775 14.296 51.8055 13.584 52.7175 13.056C53.6295 12.512 54.6455 12.24 55.7655 12.24C56.9015 12.24 57.9255 12.504 58.8375 13.032C59.7495 13.56 60.4695 14.28 60.9975 15.192C61.5415 16.088 61.8135 17.096 61.8135 18.216C61.8135 19.336 61.5415 20.352 60.9975 21.264C60.4695 22.176 59.7495 22.904 58.8375 23.448C57.9255 23.976 56.9015 24.24 55.7655 24.24ZM55.7655 21.696C56.4215 21.696 56.9975 21.552 57.4935 21.264C58.0055 20.96 58.3975 20.544 58.6695 20.016C58.9575 19.488 59.1015 18.888 59.1015 18.216C59.1015 17.544 58.9575 16.952 58.6695 16.44C58.3815 15.928 57.9895 15.528 57.4935 15.24C56.9975 14.936 56.4215 14.784 55.7655 14.784C55.1255 14.784 54.5495 14.936 54.0375 15.24C53.5415 15.528 53.1495 15.928 52.8615 16.44C52.5895 16.952 52.4535 17.544 52.4535 18.216C52.4535 18.888 52.5895 19.488 52.8615 20.016C53.1495 20.544 53.5415 20.96 54.0375 21.264C54.5495 21.552 55.1255 21.696 55.7655 21.696ZM65.2648 24V10.968C65.2648 10.088 65.4568 9.312 65.8408 8.64C66.2408 7.968 66.7848 7.44 67.4728 7.056C68.1768 6.672 68.9848 6.48 69.8968 6.48C70.6008 6.48 71.2008 6.6 71.6968 6.84C72.1928 7.08 72.6568 7.424 73.0888 7.872L71.3848 9.576C71.1928 9.384 70.9848 9.232 70.7608 9.12C70.5368 9.008 70.2488 8.952 69.8968 8.952C69.2568 8.952 68.7608 9.128 68.4088 9.48C68.0728 9.816 67.9048 10.304 67.9048 10.944V24H65.2648ZM62.5048 14.88V12.48H71.3848V14.88H62.5048ZM74.4328 24V7.68H77.0728V24H74.4328ZM71.6728 14.88V12.48H79.8328V14.88H71.6728ZM85.1111 24L80.4791 12.48H83.2151L86.3351 20.856L85.5191 20.88L88.5671 12.48H90.1031L93.1511 20.88L92.3351 20.856L95.4551 12.48H98.1911L93.5591 24H92.0231L88.9031 16.032H89.7671L86.6471 24H85.1111ZM104.388 24.24C103.348 24.24 102.404 23.976 101.556 23.448C100.724 22.92 100.06 22.208 99.5636 21.312C99.0836 20.4 98.8436 19.384 98.8436 18.264C98.8436 17.128 99.0836 16.112 99.5636 15.216C100.06 14.304 100.724 13.584 101.556 13.056C102.404 12.512 103.348 12.24 104.388 12.24C105.268 12.24 106.044 12.432 106.716 12.816C107.404 13.184 107.948 13.696 108.348 14.352C108.748 15.008 108.948 15.752 108.948 16.584V19.896C108.948 20.728 108.748 21.472 108.348 22.128C107.964 22.784 107.428 23.304 106.74 23.688C106.052 24.056 105.268 24.24 104.388 24.24ZM104.82 21.744C105.796 21.744 106.58 21.416 107.172 20.76C107.78 20.104 108.084 19.264 108.084 18.24C108.084 17.552 107.948 16.944 107.676 16.416C107.404 15.888 107.02 15.48 106.524 15.192C106.044 14.888 105.476 14.736 104.82 14.736C104.18 14.736 103.612 14.888 103.116 15.192C102.636 15.48 102.252 15.888 101.964 16.416C101.692 16.944 101.556 17.552 101.556 18.24C101.556 18.928 101.692 19.536 101.964 20.064C102.252 20.592 102.636 21.008 103.116 21.312C103.612 21.6 104.18 21.744 104.82 21.744ZM107.916 24V20.904L108.372 18.096L107.916 15.312V12.48H110.556V24H107.916ZM113.485 24V12.48H116.125V24H113.485ZM116.125 17.592L115.213 17.136C115.213 15.68 115.533 14.504 116.173 13.608C116.829 12.696 117.813 12.24 119.125 12.24C119.701 12.24 120.221 12.344 120.685 12.552C121.149 12.76 121.581 13.096 121.981 13.56L120.253 15.336C120.045 15.112 119.813 14.952 119.557 14.856C119.301 14.76 119.005 14.712 118.669 14.712C117.933 14.712 117.325 14.944 116.845 15.408C116.365 15.872 116.125 16.6 116.125 17.592ZM128.259 24.24C127.107 24.24 126.067 23.984 125.139 23.472C124.227 22.944 123.499 22.224 122.955 21.312C122.427 20.4 122.163 19.376 122.163 18.24C122.163 17.104 122.427 16.088 122.955 15.192C123.483 14.28 124.195 13.56 125.091 13.032C126.003 12.504 127.011 12.24 128.115 12.24C129.187 12.24 130.131 12.488 130.947 12.984C131.779 13.48 132.427 14.16 132.891 15.024C133.371 15.888 133.611 16.872 133.611 17.976C133.611 18.168 133.595 18.368 133.563 18.576C133.547 18.768 133.515 18.984 133.467 19.224H124.011V17.064H132.099L131.115 17.928C131.083 17.224 130.947 16.632 130.707 16.152C130.467 15.672 130.123 15.304 129.675 15.048C129.243 14.792 128.707 14.664 128.067 14.664C127.395 14.664 126.811 14.808 126.315 15.096C125.819 15.384 125.435 15.792 125.163 16.32C124.891 16.832 124.755 17.448 124.755 18.168C124.755 18.888 124.899 19.52 125.187 20.064C125.475 20.608 125.883 21.032 126.411 21.336C126.939 21.624 127.547 21.768 128.235 21.768C128.827 21.768 129.371 21.664 129.867 21.456C130.379 21.248 130.811 20.944 131.163 20.544L132.843 22.248C132.283 22.904 131.603 23.4 130.803 23.736C130.003 24.072 129.155 24.24 128.259 24.24ZM142.788 24V21.48H147.204C148.356 21.48 149.364 21.232 150.228 20.736C151.108 20.24 151.788 19.552 152.268 18.672C152.764 17.776 153.012 16.744 153.012 15.576C153.012 14.424 152.764 13.408 152.268 12.528C151.772 11.648 151.084 10.96 150.204 10.464C149.34 9.968 148.34 9.72 147.204 9.72H142.788V7.2H147.276C148.492 7.2 149.62 7.416 150.66 7.848C151.7 8.264 152.604 8.856 153.372 9.624C154.156 10.376 154.764 11.264 155.196 12.288C155.628 13.296 155.844 14.4 155.844 15.6C155.844 16.784 155.628 17.888 155.196 18.912C154.764 19.936 154.164 20.832 153.396 21.6C152.628 22.352 151.724 22.944 150.684 23.376C149.644 23.792 148.524 24 147.324 24H142.788ZM140.892 24V7.2H143.652V24H140.892ZM163.65 24.24C162.498 24.24 161.458 23.984 160.53 23.472C159.618 22.944 158.89 22.224 158.346 21.312C157.818 20.4 157.554 19.376 157.554 18.24C157.554 17.104 157.818 16.088 158.346 15.192C158.874 14.28 159.586 13.56 160.482 13.032C161.394 12.504 162.402 12.24 163.506 12.24C164.578 12.24 165.522 12.488 166.338 12.984C167.17 13.48 167.818 14.16 168.282 15.024C168.762 15.888 169.002 16.872 169.002 17.976C169.002 18.168 168.986 18.368 168.954 18.576C168.938 18.768 168.906 18.984 168.858 19.224H159.402V17.064H167.49L166.506 17.928C166.474 17.224 166.338 16.632 166.098 16.152C165.858 15.672 165.514 15.304 165.066 15.048C164.634 14.792 164.098 14.664 163.458 14.664C162.786 14.664 162.202 14.808 161.706 15.096C161.21 15.384 160.826 15.792 160.554 16.32C160.282 16.832 160.146 17.448 160.146 18.168C160.146 18.888 160.29 19.52 160.578 20.064C160.866 20.608 161.274 21.032 161.802 21.336C162.33 21.624 162.938 21.768 163.626 21.768C164.218 21.768 164.762 21.664 165.258 21.456C165.77 21.248 166.202 20.944 166.554 20.544L168.234 22.248C167.674 22.904 166.994 23.4 166.194 23.736C165.394 24.072 164.546 24.24 163.65 24.24ZM174.819 24L169.563 12.48H172.491L176.499 21.864H174.771L178.803 12.48H181.611L176.355 24H174.819ZM188.142 24.24C186.99 24.24 185.95 23.984 185.022 23.472C184.11 22.944 183.382 22.224 182.838 21.312C182.31 20.4 182.046 19.376 182.046 18.24C182.046 17.104 182.31 16.088 182.838 15.192C183.366 14.28 184.078 13.56 184.974 13.032C185.886 12.504 186.894 12.24 187.998 12.24C189.07 12.24 190.014 12.488 190.83 12.984C191.662 13.48 192.31 14.16 192.774 15.024C193.254 15.888 193.494 16.872 193.494 17.976C193.494 18.168 193.478 18.368 193.446 18.576C193.43 18.768 193.398 18.984 193.35 19.224H183.894V17.064H191.982L190.998 17.928C190.966 17.224 190.83 16.632 190.59 16.152C190.35 15.672 190.006 15.304 189.558 15.048C189.126 14.792 188.59 14.664 187.95 14.664C187.278 14.664 186.694 14.808 186.198 15.096C185.702 15.384 185.318 15.792 185.046 16.32C184.774 16.832 184.638 17.448 184.638 18.168C184.638 18.888 184.782 19.52 185.07 20.064C185.358 20.608 185.766 21.032 186.294 21.336C186.822 21.624 187.43 21.768 188.118 21.768C188.71 21.768 189.254 21.664 189.75 21.456C190.262 21.248 190.694 20.944 191.046 20.544L192.726 22.248C192.166 22.904 191.486 23.4 190.686 23.736C189.886 24.072 189.038 24.24 188.142 24.24ZM195.61 24V6.72H198.25V24H195.61ZM206.469 24.24C205.349 24.24 204.333 23.976 203.421 23.448C202.509 22.904 201.781 22.176 201.237 21.264C200.709 20.352 200.445 19.336 200.445 18.216C200.445 17.096 200.709 16.088 201.237 15.192C201.781 14.296 202.509 13.584 203.421 13.056C204.333 12.512 205.349 12.24 206.469 12.24C207.605 12.24 208.629 12.504 209.541 13.032C210.453 13.56 211.173 14.28 211.701 15.192C212.245 16.088 212.517 17.096 212.517 18.216C212.517 19.336 212.245 20.352 211.701 21.264C211.173 22.176 210.453 22.904 209.541 23.448C208.629 23.976 207.605 24.24 206.469 24.24ZM206.469 21.696C207.125 21.696 207.701 21.552 208.197 21.264C208.709 20.96 209.101 20.544 209.373 20.016C209.661 19.488 209.805 18.888 209.805 18.216C209.805 17.544 209.661 16.952 209.373 16.44C209.085 15.928 208.693 15.528 208.197 15.24C207.701 14.936 207.125 14.784 206.469 14.784C205.829 14.784 205.253 14.936 204.741 15.24C204.245 15.528 203.853 15.928 203.565 16.44C203.293 16.952 203.157 17.544 203.157 18.216C203.157 18.888 203.293 19.488 203.565 20.016C203.853 20.544 204.245 20.96 204.741 21.264C205.253 21.552 205.829 21.696 206.469 21.696ZM220.88 24.24C220 24.24 219.216 24.056 218.528 23.688C217.84 23.304 217.296 22.784 216.896 22.128C216.512 21.472 216.32 20.728 216.32 19.896V16.584C216.32 15.752 216.52 15.008 216.92 14.352C217.32 13.696 217.864 13.184 218.552 12.816C219.24 12.432 220.016 12.24 220.88 12.24C221.92 12.24 222.856 12.512 223.688 13.056C224.536 13.584 225.2 14.304 225.68 15.216C226.176 16.112 226.424 17.128 226.424 18.264C226.424 19.384 226.176 20.4 225.68 21.312C225.2 22.208 224.536 22.92 223.688 23.448C222.856 23.976 221.92 24.24 220.88 24.24ZM214.712 28.8V12.48H217.352V15.576L216.896 18.384L217.352 21.168V28.8H214.712ZM220.448 21.744C221.088 21.744 221.648 21.6 222.128 21.312C222.624 21.008 223.008 20.592 223.28 20.064C223.568 19.536 223.712 18.928 223.712 18.24C223.712 17.552 223.568 16.944 223.28 16.416C223.008 15.888 222.624 15.48 222.128 15.192C221.648 14.888 221.088 14.736 220.448 14.736C219.808 14.736 219.24 14.888 218.744 15.192C218.248 15.48 217.864 15.888 217.592 16.416C217.32 16.944 217.184 17.552 217.184 18.24C217.184 18.928 217.32 19.536 217.592 20.064C217.864 20.592 218.248 21.008 218.744 21.312C219.24 21.6 219.808 21.744 220.448 21.744ZM228.634 24V12.48H231.274V24H228.634ZM236.29 24V17.136C236.29 16.368 236.05 15.776 235.57 15.36C235.09 14.928 234.498 14.712 233.794 14.712C233.314 14.712 232.882 14.808 232.498 15C232.13 15.192 231.834 15.472 231.61 15.84C231.386 16.192 231.274 16.624 231.274 17.136L230.242 16.56C230.242 15.68 230.434 14.92 230.818 14.28C231.202 13.64 231.722 13.144 232.378 12.792C233.034 12.424 233.77 12.24 234.586 12.24C235.402 12.24 236.138 12.416 236.794 12.768C237.45 13.12 237.97 13.616 238.354 14.256C238.738 14.896 238.93 15.664 238.93 16.56V24H236.29ZM243.946 24V17.136C243.946 16.368 243.706 15.776 243.226 15.36C242.746 14.928 242.154 14.712 241.45 14.712C240.986 14.712 240.562 14.808 240.178 15C239.794 15.192 239.49 15.472 239.266 15.84C239.042 16.192 238.93 16.624 238.93 17.136L237.442 16.56C237.522 15.68 237.778 14.92 238.21 14.28C238.642 13.64 239.194 13.144 239.866 12.792C240.554 12.424 241.306 12.24 242.122 12.24C242.954 12.24 243.706 12.416 244.378 12.768C245.05 13.12 245.586 13.616 245.986 14.256C246.386 14.896 246.586 15.664 246.586 16.56V24H243.946ZM254.658 24.24C253.506 24.24 252.466 23.984 251.538 23.472C250.626 22.944 249.898 22.224 249.354 21.312C248.826 20.4 248.562 19.376 248.562 18.24C248.562 17.104 248.826 16.088 249.354 15.192C249.882 14.28 250.594 13.56 251.49 13.032C252.402 12.504 253.41 12.24 254.514 12.24C255.586 12.24 256.53 12.488 257.346 12.984C258.178 13.48 258.826 14.16 259.29 15.024C259.77 15.888 260.01 16.872 260.01 17.976C260.01 18.168 259.994 18.368 259.962 18.576C259.946 18.768 259.914 18.984 259.866 19.224H250.41V17.064H258.498L257.514 17.928C257.482 17.224 257.346 16.632 257.106 16.152C256.866 15.672 256.522 15.304 256.074 15.048C255.642 14.792 255.106 14.664 254.466 14.664C253.794 14.664 253.21 14.808 252.714 15.096C252.218 15.384 251.834 15.792 251.562 16.32C251.29 16.832 251.154 17.448 251.154 18.168C251.154 18.888 251.298 19.52 251.586 20.064C251.874 20.608 252.282 21.032 252.81 21.336C253.338 21.624 253.946 21.768 254.634 21.768C255.226 21.768 255.77 21.664 256.266 21.456C256.778 21.248 257.21 20.944 257.562 20.544L259.242 22.248C258.682 22.904 258.002 23.4 257.202 23.736C256.402 24.072 255.554 24.24 254.658 24.24ZM270.022 24V17.352C270.022 16.584 269.774 15.952 269.278 15.456C268.798 14.96 268.174 14.712 267.406 14.712C266.894 14.712 266.438 14.824 266.038 15.048C265.638 15.272 265.326 15.584 265.102 15.984C264.878 16.384 264.766 16.84 264.766 17.352L263.734 16.776C263.734 15.896 263.926 15.12 264.31 14.448C264.694 13.76 265.222 13.224 265.894 12.84C266.582 12.44 267.35 12.24 268.198 12.24C269.062 12.24 269.83 12.464 270.502 12.912C271.174 13.344 271.702 13.912 272.086 14.616C272.47 15.304 272.662 16.024 272.662 16.776V24H270.022ZM262.126 24V12.48H264.766V24H262.126ZM276.956 24V7.68H279.596V24H276.956ZM274.196 14.88V12.48H282.356V14.88H274.196ZM294.119 24.24C292.791 24.24 291.663 24 290.735 23.52C289.807 23.04 288.975 22.336 288.239 21.408L290.111 19.536C290.575 20.208 291.127 20.736 291.767 21.12C292.407 21.488 293.223 21.672 294.215 21.672C295.143 21.672 295.879 21.48 296.423 21.096C296.983 20.712 297.263 20.184 297.263 19.512C297.263 18.952 297.119 18.496 296.831 18.144C296.543 17.792 296.159 17.504 295.679 17.28C295.215 17.04 294.695 16.832 294.119 16.656C293.559 16.464 292.991 16.256 292.415 16.032C291.855 15.792 291.335 15.496 290.855 15.144C290.391 14.792 290.015 14.336 289.727 13.776C289.439 13.216 289.295 12.504 289.295 11.64C289.295 10.648 289.535 9.808 290.015 9.12C290.511 8.416 291.175 7.88 292.007 7.512C292.839 7.144 293.767 6.96 294.791 6.96C295.895 6.96 296.879 7.176 297.743 7.608C298.623 8.04 299.335 8.592 299.879 9.264L298.007 11.136C297.527 10.592 297.023 10.192 296.495 9.936C295.983 9.664 295.391 9.528 294.719 9.528C293.887 9.528 293.231 9.696 292.751 10.032C292.287 10.368 292.055 10.84 292.055 11.448C292.055 11.96 292.199 12.376 292.487 12.696C292.775 13 293.151 13.264 293.615 13.488C294.095 13.696 294.615 13.896 295.175 14.088C295.751 14.28 296.319 14.496 296.879 14.736C297.455 14.976 297.975 15.288 298.439 15.672C298.919 16.04 299.303 16.52 299.591 17.112C299.879 17.704 300.023 18.448 300.023 19.344C300.023 20.848 299.487 22.04 298.415 22.92C297.359 23.8 295.927 24.24 294.119 24.24ZM307.627 24.24C306.475 24.24 305.435 23.984 304.507 23.472C303.595 22.944 302.867 22.224 302.323 21.312C301.795 20.4 301.531 19.376 301.531 18.24C301.531 17.104 301.795 16.088 302.323 15.192C302.851 14.28 303.563 13.56 304.459 13.032C305.371 12.504 306.379 12.24 307.483 12.24C308.555 12.24 309.499 12.488 310.315 12.984C311.147 13.48 311.795 14.16 312.259 15.024C312.739 15.888 312.979 16.872 312.979 17.976C312.979 18.168 312.963 18.368 312.931 18.576C312.915 18.768 312.883 18.984 312.835 19.224H303.379V17.064H311.467L310.483 17.928C310.451 17.224 310.315 16.632 310.075 16.152C309.835 15.672 309.491 15.304 309.043 15.048C308.611 14.792 308.075 14.664 307.435 14.664C306.763 14.664 306.179 14.808 305.683 15.096C305.187 15.384 304.803 15.792 304.531 16.32C304.259 16.832 304.123 17.448 304.123 18.168C304.123 18.888 304.267 19.52 304.555 20.064C304.843 20.608 305.251 21.032 305.779 21.336C306.307 21.624 306.915 21.768 307.603 21.768C308.195 21.768 308.739 21.664 309.235 21.456C309.747 21.248 310.179 20.944 310.531 20.544L312.211 22.248C311.651 22.904 310.971 23.4 310.171 23.736C309.371 24.072 308.523 24.24 307.627 24.24ZM315.095 24V12.48H317.735V24H315.095ZM317.735 17.592L316.823 17.136C316.823 15.68 317.143 14.504 317.783 13.608C318.439 12.696 319.423 12.24 320.735 12.24C321.311 12.24 321.831 12.344 322.295 12.552C322.759 12.76 323.191 13.096 323.591 13.56L321.863 15.336C321.655 15.112 321.423 14.952 321.167 14.856C320.911 14.76 320.615 14.712 320.279 14.712C319.543 14.712 318.935 14.944 318.455 15.408C317.975 15.872 317.735 16.6 317.735 17.592ZM328.592 24L323.336 12.48H326.264L330.272 21.864H328.544L332.576 12.48H335.384L330.128 24H328.592ZM336.963 24V12.48H339.603V24H336.963ZM338.283 10.368C337.835 10.368 337.459 10.216 337.155 9.912C336.867 9.608 336.723 9.232 336.723 8.784C336.723 8.336 336.867 7.96 337.155 7.656C337.459 7.352 337.835 7.2 338.283 7.2C338.747 7.2 339.123 7.352 339.411 7.656C339.699 7.96 339.843 8.336 339.843 8.784C339.843 9.232 339.699 9.608 339.411 9.912C339.123 10.216 338.747 10.368 338.283 10.368ZM347.868 24.24C346.732 24.24 345.7 23.976 344.772 23.448C343.86 22.92 343.14 22.2 342.612 21.288C342.084 20.376 341.82 19.36 341.82 18.24C341.82 17.104 342.084 16.088 342.612 15.192C343.14 14.28 343.86 13.56 344.772 13.032C345.7 12.504 346.732 12.24 347.868 12.24C348.764 12.24 349.596 12.416 350.364 12.768C351.148 13.104 351.812 13.592 352.356 14.232L350.628 15.984C350.292 15.584 349.884 15.288 349.404 15.096C348.94 14.888 348.428 14.784 347.868 14.784C347.212 14.784 346.628 14.936 346.116 15.24C345.62 15.528 345.228 15.928 344.94 16.44C344.668 16.952 344.532 17.552 344.532 18.24C344.532 18.912 344.668 19.512 344.94 20.04C345.228 20.552 345.62 20.96 346.116 21.264C346.628 21.552 347.212 21.696 347.868 21.696C348.428 21.696 348.94 21.6 349.404 21.408C349.884 21.2 350.292 20.896 350.628 20.496L352.356 22.248C351.812 22.888 351.148 23.384 350.364 23.736C349.596 24.072 348.764 24.24 347.868 24.24ZM359.377 24.24C358.225 24.24 357.185 23.984 356.257 23.472C355.345 22.944 354.617 22.224 354.073 21.312C353.545 20.4 353.281 19.376 353.281 18.24C353.281 17.104 353.545 16.088 354.073 15.192C354.601 14.28 355.313 13.56 356.209 13.032C357.121 12.504 358.129 12.24 359.233 12.24C360.305 12.24 361.249 12.488 362.065 12.984C362.897 13.48 363.545 14.16 364.009 15.024C364.489 15.888 364.729 16.872 364.729 17.976C364.729 18.168 364.713 18.368 364.681 18.576C364.665 18.768 364.633 18.984 364.585 19.224H355.129V17.064H363.217L362.233 17.928C362.201 17.224 362.065 16.632 361.825 16.152C361.585 15.672 361.241 15.304 360.793 15.048C360.361 14.792 359.825 14.664 359.185 14.664C358.513 14.664 357.929 14.808 357.433 15.096C356.937 15.384 356.553 15.792 356.281 16.32C356.009 16.832 355.873 17.448 355.873 18.168C355.873 18.888 356.017 19.52 356.305 20.064C356.593 20.608 357.001 21.032 357.529 21.336C358.057 21.624 358.665 21.768 359.353 21.768C359.945 21.768 360.489 21.664 360.985 21.456C361.497 21.248 361.929 20.944 362.281 20.544L363.961 22.248C363.401 22.904 362.721 23.4 361.921 23.736C361.121 24.072 360.273 24.24 359.377 24.24ZM370.613 24.24C369.973 24.24 369.357 24.16 368.765 24C368.173 23.824 367.629 23.584 367.133 23.28C366.637 22.96 366.205 22.576 365.837 22.128L367.517 20.448C367.917 20.912 368.373 21.264 368.885 21.504C369.413 21.728 370.005 21.84 370.661 21.84C371.253 21.84 371.701 21.752 372.005 21.576C372.309 21.4 372.461 21.144 372.461 20.808C372.461 20.456 372.317 20.184 372.029 19.992C371.741 19.8 371.365 19.64 370.901 19.512C370.453 19.368 369.973 19.224 369.461 19.08C368.965 18.936 368.485 18.744 368.021 18.504C367.573 18.248 367.205 17.904 366.917 17.472C366.629 17.04 366.485 16.48 366.485 15.792C366.485 15.056 366.653 14.424 366.989 13.896C367.341 13.368 367.829 12.96 368.453 12.672C369.093 12.384 369.853 12.24 370.733 12.24C371.661 12.24 372.477 12.408 373.181 12.744C373.901 13.064 374.501 13.552 374.981 14.208L373.301 15.888C372.965 15.472 372.581 15.16 372.149 14.952C371.717 14.744 371.221 14.64 370.661 14.64C370.133 14.64 369.725 14.72 369.437 14.88C369.149 15.04 369.005 15.272 369.005 15.576C369.005 15.896 369.149 16.144 369.437 16.32C369.725 16.496 370.093 16.648 370.541 16.776C371.005 16.904 371.485 17.048 371.981 17.208C372.493 17.352 372.973 17.56 373.421 17.832C373.885 18.088 374.261 18.44 374.549 18.888C374.837 19.32 374.981 19.888 374.981 20.592C374.981 21.712 374.589 22.6 373.805 23.256C373.021 23.912 371.957 24.24 370.613 24.24ZM386.642 24L381.122 7.2H383.834L387.986 20.136H387.266L391.322 7.2H393.242L397.298 20.136H396.578L400.73 7.2H403.442L397.922 24H396.002L391.922 11.088H392.642L388.562 24H386.642ZM409.205 24.24C408.053 24.24 407.013 23.984 406.085 23.472C405.173 22.944 404.445 22.224 403.901 21.312C403.373 20.4 403.109 19.376 403.109 18.24C403.109 17.104 403.373 16.088 403.901 15.192C404.429 14.28 405.141 13.56 406.037 13.032C406.949 12.504 407.957 12.24 409.061 12.24C410.133 12.24 411.077 12.488 411.893 12.984C412.725 13.48 413.373 14.16 413.837 15.024C414.317 15.888 414.557 16.872 414.557 17.976C414.557 18.168 414.541 18.368 414.509 18.576C414.493 18.768 414.461 18.984 414.413 19.224H404.957V17.064H413.045L412.061 17.928C412.029 17.224 411.893 16.632 411.653 16.152C411.413 15.672 411.069 15.304 410.621 15.048C410.189 14.792 409.653 14.664 409.013 14.664C408.341 14.664 407.757 14.808 407.261 15.096C406.765 15.384 406.381 15.792 406.109 16.32C405.837 16.832 405.701 17.448 405.701 18.168C405.701 18.888 405.845 19.52 406.133 20.064C406.421 20.608 406.829 21.032 407.357 21.336C407.885 21.624 408.493 21.768 409.181 21.768C409.773 21.768 410.317 21.664 410.813 21.456C411.325 21.248 411.757 20.944 412.109 20.544L413.789 22.248C413.229 22.904 412.549 23.4 411.749 23.736C410.949 24.072 410.101 24.24 409.205 24.24ZM429.566 24.24C428.366 24.24 427.246 24.016 426.206 23.568C425.166 23.12 424.254 22.504 423.47 21.72C422.686 20.92 422.07 20 421.622 18.96C421.19 17.904 420.974 16.776 420.974 15.576C420.974 14.376 421.19 13.256 421.622 12.216C422.07 11.176 422.678 10.264 423.446 9.48C424.23 8.68 425.134 8.064 426.158 7.632C427.198 7.184 428.318 6.96 429.518 6.96C430.718 6.96 431.83 7.184 432.854 7.632C433.894 8.064 434.806 8.68 435.59 9.48C436.374 10.264 436.982 11.184 437.414 12.24C437.862 13.28 438.086 14.4 438.086 15.6C438.086 16.8 437.862 17.928 437.414 18.984C436.982 20.024 436.374 20.936 435.59 21.72C434.822 22.504 433.918 23.12 432.878 23.568C431.854 24.016 430.75 24.24 429.566 24.24ZM429.518 21.6C430.654 21.6 431.646 21.344 432.494 20.832C433.358 20.32 434.03 19.616 434.51 18.72C435.006 17.808 435.254 16.76 435.254 15.576C435.254 14.696 435.11 13.896 434.822 13.176C434.55 12.44 434.158 11.808 433.646 11.28C433.134 10.736 432.526 10.32 431.822 10.032C431.134 9.744 430.366 9.6 429.518 9.6C428.398 9.6 427.406 9.856 426.542 10.368C425.694 10.864 425.022 11.56 424.526 12.456C424.046 13.352 423.806 14.392 423.806 15.576C423.806 16.456 423.942 17.272 424.214 18.024C424.502 18.76 424.894 19.392 425.39 19.92C425.902 20.448 426.51 20.864 427.214 21.168C427.918 21.456 428.686 21.6 429.518 21.6ZM442.116 24V11.496C442.116 10.568 442.316 9.752 442.716 9.048C443.116 8.328 443.676 7.76 444.396 7.344C445.132 6.928 445.972 6.72 446.916 6.72C447.876 6.72 448.652 6.928 449.244 7.344C449.852 7.744 450.292 8.304 450.564 9.024C450.852 9.744 450.996 10.56 450.996 11.472H449.076C449.076 10.736 448.892 10.16 448.524 9.744C448.172 9.328 447.636 9.12 446.916 9.12C446.196 9.12 445.652 9.328 445.284 9.744C444.932 10.144 444.756 10.696 444.756 11.4V24H442.116ZM439.356 14.88V12.48H455.196V14.88H439.356ZM449.076 24V10.968C449.076 10.088 449.268 9.312 449.652 8.64C450.052 7.968 450.596 7.44 451.284 7.056C451.988 6.672 452.796 6.48 453.708 6.48C454.412 6.48 455.012 6.6 455.508 6.84C456.004 7.08 456.468 7.424 456.9 7.872L455.196 9.576C455.004 9.384 454.796 9.232 454.572 9.12C454.348 9.008 454.06 8.952 453.708 8.952C453.068 8.952 452.572 9.128 452.22 9.48C451.884 9.816 451.716 10.304 451.716 10.944V24H449.076ZM461.939 24.24C460.787 24.24 459.747 23.984 458.819 23.472C457.907 22.944 457.179 22.224 456.635 21.312C456.107 20.4 455.843 19.376 455.843 18.24C455.843 17.104 456.107 16.088 456.635 15.192C457.163 14.28 457.875 13.56 458.771 13.032C459.683 12.504 460.691 12.24 461.795 12.24C462.867 12.24 463.811 12.488 464.627 12.984C465.459 13.48 466.107 14.16 466.571 15.024C467.051 15.888 467.291 16.872 467.291 17.976C467.291 18.168 467.275 18.368 467.243 18.576C467.227 18.768 467.195 18.984 467.147 19.224H457.691V17.064H465.779L464.795 17.928C464.763 17.224 464.627 16.632 464.387 16.152C464.147 15.672 463.803 15.304 463.355 15.048C462.923 14.792 462.387 14.664 461.747 14.664C461.075 14.664 460.491 14.808 459.995 15.096C459.499 15.384 459.115 15.792 458.843 16.32C458.571 16.832 458.435 17.448 458.435 18.168C458.435 18.888 458.579 19.52 458.867 20.064C459.155 20.608 459.563 21.032 460.091 21.336C460.619 21.624 461.227 21.768 461.915 21.768C462.507 21.768 463.051 21.664 463.547 21.456C464.059 21.248 464.491 20.944 464.843 20.544L466.523 22.248C465.963 22.904 465.283 23.4 464.483 23.736C463.683 24.072 462.835 24.24 461.939 24.24ZM469.407 24V12.48H472.047V24H469.407ZM472.047 17.592L471.135 17.136C471.135 15.68 471.455 14.504 472.095 13.608C472.751 12.696 473.735 12.24 475.047 12.24C475.623 12.24 476.143 12.344 476.607 12.552C477.071 12.76 477.503 13.096 477.903 13.56L476.175 15.336C475.967 15.112 475.735 14.952 475.479 14.856C475.223 14.76 474.927 14.712 474.591 14.712C473.855 14.712 473.247 14.944 472.767 15.408C472.287 15.872 472.047 16.6 472.047 17.592Z" fill="black"/>
</svg>
