<svg width="15" height="15" viewBox="0 0 15 15" fill="none" xmlns="http://www.w3.org/2000/svg">
<g clip-path="url(#clip0_203_376)">
<path fill-rule="evenodd" clip-rule="evenodd" d="M2.56219 13.1217C2.83687 13.3434 3.24 13.3022 3.46125 13.027C3.68391 12.7528 3.64219 12.3497 3.3675 12.127C3.09328 11.9048 2.69062 11.9475 2.4675 12.2217C2.25656 12.4819 2.28375 12.8573 2.52141 13.0861L2.39672 12.9764C0.924375 11.6072 0 9.65484 0 7.48969C0 3.36 3.36 0 7.49062 0C9.59062 0 11.4891 0.870469 12.8508 2.26688C13.1602 1.84594 13.4283 1.37531 13.6477 0.853594C14.602 3.72141 15.1631 6.13172 14.9578 8.03016C14.6803 11.9086 11.4384 14.9817 7.49062 14.9817C5.65687 14.9817 3.97688 14.318 2.67375 13.2206L2.56219 13.1217ZM13.6153 10.7864C15.495 8.28516 14.4473 4.24031 13.5755 1.65516C12.7987 3.27375 10.8858 4.51172 9.23391 4.90359C7.68562 5.27297 6.31547 4.97016 4.8825 5.52141C1.61531 6.77766 1.66688 10.6739 3.46688 11.5495C3.46781 11.5495 3.57469 11.6077 3.57328 11.6058C3.57328 11.6048 6.21891 11.0798 7.68141 10.5398C9.81891 9.75047 12.1655 7.80469 12.9375 5.54437C12.5264 7.89516 10.5084 10.1569 8.48109 11.1956C7.40203 11.7497 6.56297 11.873 4.78734 12.4875C4.56984 12.5616 4.39922 12.6347 4.39922 12.6347C4.84922 12.5597 5.29781 12.5353 5.29781 12.5353C7.82578 12.4158 11.7698 13.2459 13.6158 10.7869L13.6153 10.7864Z" fill="#70AD51"/>
</g>
<defs>
<clipPath id="clip0_203_376">
<rect width="15" height="15" fill="white"/>
</clipPath>
</defs>
</svg>
